<svg width="16" height="16" viewBox="0 0 16 16" fill="none" xmlns="http://www.w3.org/2000/svg">
<g clip-path="url(#clip0_583_39631)">
<path d="M5.33317 8.00016C5.33317 7.26683 4.73317 6.66683 3.99984 6.66683C3.2665 6.66683 2.6665 7.26683 2.6665 8.00016C2.6665 8.7335 3.2665 9.3335 3.99984 9.3335C4.73317 9.3335 5.33317 8.7335 5.33317 8.00016ZM6.6665 8.00016C6.6665 8.7335 7.2665 9.3335 7.99984 9.3335C8.73317 9.3335 9.33317 8.7335 9.33317 8.00016C9.33317 7.26683 8.73317 6.66683 7.99984 6.66683C7.2665 6.66683 6.6665 7.26683 6.6665 8.00016ZM10.6665 8.00016C10.6665 8.7335 11.2665 9.3335 11.9998 9.3335C12.7332 9.3335 13.3332 8.7335 13.3332 8.00016C13.3332 7.26683 12.7332 6.66683 11.9998 6.66683C11.2665 6.66683 10.6665 7.26683 10.6665 8.00016Z" fill="#6F6F6F"/>
</g>
<defs>
<clipPath id="clip0_583_39631">
<rect y="16" width="16" height="16" rx="2" transform="rotate(-90 0 16)" fill="white"/>
</clipPath>
</defs>
</svg>
