<svg width="16" height="16" viewBox="0 0 16 16" fill="none" xmlns="http://www.w3.org/2000/svg">
<path d="M7.52929 1.35533C9.54103 1.35533 9.77926 1.36415 10.5704 1.39943C11.3057 1.43177 11.7028 1.55525 11.9675 1.65815C12.3175 1.79339 12.5704 1.95803 12.8322 2.21969C13.0969 2.48428 13.2586 2.73418 13.3939 3.08404C13.4968 3.34864 13.6204 3.74848 13.6527 4.48053C13.688 5.27433 13.6968 5.51247 13.6968 7.52047C13.6968 9.53142 13.688 9.76956 13.6527 10.5604C13.6204 11.2954 13.4968 11.6923 13.3939 11.9569C13.2586 12.3068 13.0939 12.5596 12.8322 12.8213C12.5674 13.0859 12.3175 13.2476 11.9675 13.3828C11.7028 13.4857 11.3028 13.6092 10.5704 13.6415C9.77632 13.6768 9.53809 13.6856 7.52929 13.6856C5.51756 13.6856 5.27933 13.6768 4.48817 13.6415C3.75288 13.6092 3.35583 13.4857 3.09113 13.3828C2.74113 13.2476 2.4882 13.0829 2.22644 12.8213C1.96173 12.5567 1.79997 12.3068 1.66468 11.9569C1.56174 11.6923 1.43821 11.2925 1.40586 10.5604C1.37057 9.76662 1.36174 9.52848 1.36174 7.52047C1.36174 5.50953 1.37057 5.27139 1.40586 4.48053C1.43821 3.74554 1.56174 3.34864 1.66468 3.08404C1.79997 2.73418 1.96468 2.48134 2.22644 2.21969C2.49114 1.95509 2.74113 1.79339 3.09113 1.65815C3.35583 1.55525 3.75582 1.43177 4.48817 1.39943C5.27933 1.36415 5.51756 1.35533 7.52929 1.35533ZM7.52929 0C5.48521 0 5.22933 0.00881994 4.4264 0.0440997C3.62641 0.0793795 3.07642 0.208739 2.59996 0.393957C2.10291 0.587996 1.68233 0.843775 1.26469 1.26419C0.844104 1.68167 0.588226 2.10209 0.394111 2.596C0.20882 3.07522 0.0794105 3.62206 0.044117 4.42173C0.00882339 5.22729 0 5.48307 0 7.52635C0 9.56964 0.00882339 9.82542 0.044117 10.628C0.0794105 11.4277 0.20882 11.9775 0.394111 12.4538C0.588226 12.9506 0.844104 13.371 1.26469 13.7885C1.68233 14.206 2.10291 14.4647 2.59702 14.6558C3.07642 14.841 3.62347 14.9704 4.42346 15.0057C5.22639 15.0409 5.48227 15.0498 7.52635 15.0498C9.57044 15.0498 9.82632 15.0409 10.6292 15.0057C11.4292 14.9704 11.9792 14.841 12.4557 14.6558C12.9498 14.4647 13.3704 14.206 13.788 13.7885C14.2057 13.371 14.4645 12.9506 14.6557 12.4567C14.8409 11.9775 14.9704 11.4306 15.0056 10.631C15.0409 9.82836 15.0498 9.57258 15.0498 7.52929C15.0498 5.48601 15.0409 5.23023 15.0056 4.42761C14.9704 3.62794 14.8409 3.07816 14.6557 2.60188C14.4704 2.10209 14.2145 1.68167 13.7939 1.26419C13.3763 0.846715 12.9557 0.587996 12.4616 0.396897C11.9822 0.211679 11.4351 0.0823195 10.6351 0.0470397C9.82926 0.00881995 9.57338 0 7.52929 0Z" fill="#1B1B1B"/>
<path d="M7.52921 3.66028C5.39395 3.66028 3.66162 5.39193 3.66162 7.52635C3.66162 9.66078 5.39395 11.3924 7.52921 11.3924C9.66447 11.3924 11.3968 9.66078 11.3968 7.52635C11.3968 5.39193 9.66447 3.66028 7.52921 3.66028ZM7.52921 10.0342C6.14394 10.0342 5.02042 8.91108 5.02042 7.52635C5.02042 6.14162 6.14394 5.01855 7.52921 5.01855C8.91448 5.01855 10.038 6.14162 10.038 7.52635C10.038 8.91108 8.91448 10.0342 7.52921 10.0342Z" fill="#1B1B1B"/>
<path d="M12.4528 3.5073C12.4528 4.00729 12.047 4.41023 11.5499 4.41023C11.0499 4.41023 10.647 4.00435 10.647 3.5073C10.647 3.00731 11.0528 2.60437 11.5499 2.60437C12.047 2.60437 12.4528 3.01025 12.4528 3.5073Z" fill="#1B1B1B"/>
</svg>
