<svg width="15" height="12" viewBox="0 0 15 12" fill="none" xmlns="http://www.w3.org/2000/svg">
<path d="M4.71885 12C10.3778 12 13.4739 7.38277 13.4739 3.37993C13.4739 3.25013 13.471 3.11744 13.4651 2.98764C14.0674 2.55879 14.5872 2.02761 15 1.41904C14.4391 1.66476 13.8435 1.82523 13.2337 1.89499C13.8758 1.51603 14.3566 0.920707 14.5869 0.219376C13.9828 0.57185 13.3222 0.820489 12.6334 0.954637C12.1693 0.469086 11.5556 0.147594 10.8873 0.0398653C10.219 -0.0678633 9.53324 0.0441724 8.93609 0.358651C8.33893 0.673129 7.86363 1.17253 7.58365 1.77965C7.30368 2.38677 7.23464 3.06779 7.38721 3.71742C6.16406 3.65699 4.96746 3.34415 3.87499 2.79918C2.78252 2.25421 1.81856 1.48928 1.04561 0.553979C0.65275 1.22086 0.532535 2.01 0.709394 2.76102C0.886253 3.51204 1.34691 4.16857 1.99775 4.5972C1.50914 4.58192 1.03123 4.4524 0.603516 4.21932V4.25682C0.603078 4.95667 0.848811 5.63507 1.29894 6.1767C1.74908 6.71833 2.37583 7.08977 3.07266 7.22787C2.62003 7.3498 2.14499 7.36756 1.68428 7.27979C1.88091 7.88166 2.26348 8.40807 2.77861 8.78556C3.29373 9.16305 3.9157 9.37278 4.55771 9.38548C3.46777 10.2284 2.12136 10.6857 0.735352 10.6835C0.489554 10.6831 0.243999 10.6683 0 10.6391C1.40804 11.5285 3.04596 12.0009 4.71885 12Z" fill="#1B1B1B"/>
</svg>
